<?xml version="1.0" encoding="UTF-8" standalone="no"?>
<svg
   sodipodi:docname="drawing.svg"
   inkscape:version="1.1.2 (0a00cf5339, 2022-02-04)"
   id="svg8"
   version="1.1"
   viewBox="0 0 225.86871 38.709602"
   height="38.709602mm"
   width="225.86871mm"
   xmlns:inkscape="http://www.inkscape.org/namespaces/inkscape"
   xmlns:sodipodi="http://sodipodi.sourceforge.net/DTD/sodipodi-0.dtd"
   xmlns="http://www.w3.org/2000/svg"
   xmlns:svg="http://www.w3.org/2000/svg"
   xmlns:rdf="http://www.w3.org/1999/02/22-rdf-syntax-ns#"
   xmlns:cc="http://creativecommons.org/ns#"
   xmlns:dc="http://purl.org/dc/elements/1.1/">
  <defs
     id="defs2" />
  <sodipodi:namedview
     inkscape:window-maximized="1"
     inkscape:window-y="0"
     inkscape:window-x="0"
     inkscape:window-height="1047"
     inkscape:window-width="1920"
     fit-margin-bottom="0"
     fit-margin-right="0"
     fit-margin-left="0"
     fit-margin-top="0"
     showgrid="false"
     inkscape:document-rotation="0"
     inkscape:current-layer="layer1"
     inkscape:document-units="mm"
     inkscape:cy="235.71429"
     inkscape:cx="880"
     inkscape:zoom="0.7"
     inkscape:pageshadow="2"
     inkscape:pageopacity="0.0"
     borderopacity="1.0"
     bordercolor="#666666"
     pagecolor="#ffffff"
     id="base"
     inkscape:pagecheckerboard="0" />
  <metadata
     id="metadata5">
    <rdf:RDF>
      <cc:Work
         rdf:about="">
        <dc:format>image/svg+xml</dc:format>
        <dc:type
           rdf:resource="http://purl.org/dc/dcmitype/StillImage" />
        <dc:title />
      </cc:Work>
    </rdf:RDF>
  </metadata>
  <g
     transform="translate(-4.020089,-7.482607)"
     id="layer1"
     inkscape:groupmode="layer"
     inkscape:label="Layer 1">
    <path
       d="m 17.972749,16.250856 q 0,1.237588 -0.752438,1.237588 -0.39835,0 -0.686047,-0.309397 -0.287697,-0.340337 -0.376219,-0.680673 l -0.08852,-0.309397 q -0.06639,-0.154699 -0.309828,-0.154699 -1.128657,0 -2.965492,0.99007 -1.836834,0.99007 -2.9212303,2.227658 -0.9073519,1.02101 -1.6376598,3.217728 -0.7081771,2.196717 -1.3720932,6.559213 -0.2213054,1.330407 -0.2213054,2.103899 0,1.670743 0.7303077,2.846452 0.7303077,1.144768 1.7704431,1.144768 0.5090023,0 1.6597899,-0.649733 1.172919,-0.649734 1.681921,-1.237588 l 1.460615,-1.577924 q 0.686047,-0.711613 1.460616,-1.887321 0.796699,-1.206648 1.305701,-1.887321 0.509003,-0.680673 0.840961,-0.680673 0.02213,0 0.06639,0.03094 0.06639,0.03094 0.08852,0.06187 0.02213,0 0.06639,0.06187 0.06639,0.03094 0.08852,0.09282 0.02213,0.06188 0.04426,0.185638 0.02213,0.09282 0.02213,0.247518 0,0.340336 -0.04426,0.587854 -0.110653,0.649733 -0.995875,2.196718 -0.86309,1.516045 -2.124531,3.217727 -1.261441,1.670744 -2.965492,2.939271 -1.704051,1.268527 -3.1646664,1.268527 -0.9073522,0 -1.6597904,-0.464095 Q 6.221435,37.135139 5.7788244,36.454466 5.3362136,35.773792 5.0263861,35.0003 4.7165586,34.226808 4.605906,33.700833 4.4952533,33.143919 4.4952533,32.865462 q 0,-1.516045 0.7966993,-6.126059 0.7966992,-4.610013 1.3720931,-6.187937 0.6860466,-1.887321 2.2130538,-3.589004 1.5491375,-1.701683 3.2753195,-2.660813 1.748312,-0.959131 3.142536,-0.959131 1.128657,0 1.903226,0.866312 0.774569,0.866311 0.774569,2.042019 z"
       style="font-style:oblique;font-weight:bold;font-size:26.167px;line-height:1.25;font-family:Purisa;-inkscape-font-specification:'Purisa Bold Oblique';fill:#ff0000;stroke-width:0.65418"
       id="path71889" />
    <path
       d="m 24.169284,20.396774 q 0.398349,0 0.486871,0.340337 0.110653,0.309397 0.110653,0.99007 0,2.444235 -0.796699,8.848751 -0.774569,6.404515 -1.150788,7.085188 -0.509002,0.495035 -1.018005,0.495035 -0.331958,0 -0.553263,-0.154698 -0.199175,-0.154698 -0.265566,-0.278457 -0.04426,-0.154699 -0.04426,-0.247518 0,-0.773492 0.641785,-6.621093 0.663916,-5.847601 0.973744,-7.765862 0.287697,-1.856381 0.81883,-2.320476 0.442611,-0.371277 0.796699,-0.371277 z m 0.02213,-6.404515 q 0,-0.773492 0.44261,-1.268527 0.442611,-0.525975 0.7967,-0.525975 0.287697,0 0.686046,0.371276 0.39835,0.340337 0.39835,0.897251 0,0.587854 -0.376219,1.361347 -0.376219,0.773492 -0.907352,0.773492 -0.39835,0 -0.730308,-0.433156 -0.309827,-0.464095 -0.309827,-1.175708 z"
       style="font-style:oblique;font-weight:bold;font-size:26.167px;line-height:1.25;font-family:Purisa;-inkscape-font-specification:'Purisa Bold Oblique';fill:#ff0000;stroke-width:0.65418"
       id="path71891" />
    <path
       d="m 37.137768,26.306255 q 0.08852,-0.154699 0.08852,-0.278457 0,-0.123759 -0.110653,-0.309397 -0.110653,-0.185638 -0.39835,-0.556915 L 36.451721,24.79021 q -0.575394,-0.742552 -0.863091,-0.92819 -0.287697,-0.185639 -0.84096,-0.185639 -1.106527,0 -1.65979,0.247518 -0.553264,0.216578 -1.23931,0.99007 -2.080271,2.351416 -2.190924,3.00115 0.08852,0.03094 0.37622,0.03094 2.146662,0 6.108027,-1.051949 0.39835,-0.09282 0.663917,-0.278458 0.265566,-0.185638 0.331958,-0.309397 z m 0.995874,5.476325 q 0.863091,-0.835372 1.195049,-0.835372 0.331958,0 0.331958,0.464095 0,0.618794 -0.840961,2.01108 -0.81883,1.361346 -1.748312,2.320477 -2.921231,2.97021 -5.554765,2.97021 -1.836834,0 -3.164666,-1.732623 -1.327832,-1.763562 -1.327832,-4.88847 0,-2.598934 0.774568,-4.579074 0.774569,-1.918261 2.699926,-3.99122 1.925356,-2.103899 3.408102,-2.103899 0.376219,0 1.150788,0.09282 1.172919,0.123759 1.63766,0.340337 0.464741,0.185638 1.018005,0.773492 0.531132,0.587854 0.907351,1.577924 0.39835,0.99007 0.39835,1.887321 0,0.649733 -0.221305,1.175708 -0.221306,0.495035 -0.509003,0.804432 -0.287697,0.309397 -0.818829,0.587854 -0.531133,0.247518 -0.929483,0.371276 -0.376219,0.123759 -0.995874,0.278457 -2.235184,0.587855 -4.53676,0.773493 l -1.947487,0.123758 -0.110653,0.804432 q -0.08852,0.680673 -0.08852,0.928191 0,1.454165 1.040135,2.908331 0.951613,1.361346 2.190923,1.361346 0.973744,0 2.190923,-0.804432 1.21718,-0.835372 2.102401,-1.825442 0.907352,-0.99007 1.748313,-1.794501 z"
       style="font-style:oblique;font-weight:bold;font-size:26.167px;line-height:1.25;font-family:Purisa;-inkscape-font-specification:'Purisa Bold Oblique';fill:#ff0000;stroke-width:0.65418"
       id="path71893" />
    <path
       d="m 41.696628,36.856689 q 0,-0.804432 0.309828,-1.299467 0.309827,-0.525975 0.619655,-0.525975 0.553263,0 0.81883,1.082889 0.154913,0.649733 0.863091,1.237588 0.730307,0.556914 1.438484,0.556914 0.907352,0 1.903227,-1.485105 0.995874,-1.485105 0.995874,-2.103899 0,-1.051949 -0.951613,-1.485105 -0.708178,-0.309397 -1.527007,-0.773492 -0.7967,-0.495035 -1.195049,-0.618794 -0.575394,-0.185638 -1.438485,-1.144768 -0.863091,-0.99007 -0.863091,-2.134839 0,-1.330406 1.63766,-3.403365 1.65979,-2.103899 3.629407,-2.660814 L 50.194754,21.82 q 0.597525,0 0.863091,0.216578 0.287697,0.185638 0.641786,0.928191 0.486871,0.99007 0.486871,1.639803 0,0.340337 -0.177044,0.618794 -0.177044,0.278457 -0.509002,0.278457 -0.354089,0 -0.575394,-0.216578 -0.199175,-0.247517 -0.309828,-0.495035 -0.08852,-0.278457 -0.376219,-0.495035 -0.265566,-0.247517 -0.730307,-0.247517 -0.973744,0 -2.190924,0.804432 -1.217179,0.773492 -1.991748,1.670743 -0.752438,0.866311 -0.752438,1.237587 0,0.402216 0.553263,0.99007 0.575394,0.556915 1.681921,1.05195 1.903226,0.866311 2.677795,1.639803 0.796699,0.773492 0.796699,2.01108 0,0.680673 -0.265566,1.763562 -0.265567,1.051949 -0.575394,1.701683 -0.464741,1.02101 -1.549138,2.103899 -1.062265,1.113828 -2.013878,1.113828 -0.686047,0 -1.748313,-0.278457 -1.062265,-0.247517 -1.593398,-0.618793 -0.354089,-0.278458 -0.597525,-0.959131 -0.243436,-0.680673 -0.243436,-1.423225 z"
       style="font-style:oblique;font-weight:bold;font-size:26.167px;line-height:1.25;font-family:Purisa;-inkscape-font-specification:'Purisa Bold Oblique';fill:#ff0000;stroke-width:0.65418"
       id="path71895" />
    <path
       d="m 57.71911,20.396774 q 0.39835,0 0.486872,0.340337 0.110653,0.309397 0.110653,0.99007 0,2.444235 -0.7967,8.848751 -0.774568,6.404515 -1.150788,7.085188 -0.509002,0.495035 -1.018004,0.495035 -0.331958,0 -0.553264,-0.154698 -0.199174,-0.154698 -0.265566,-0.278457 -0.04426,-0.154699 -0.04426,-0.247518 0,-0.773492 0.641786,-6.621093 0.663916,-5.847601 0.973743,-7.765862 0.287697,-1.856381 0.81883,-2.320476 0.442611,-0.371277 0.7967,-0.371277 z m 0.02213,-6.404515 q 0,-0.773492 0.442611,-1.268527 0.442611,-0.525975 0.796699,-0.525975 0.287697,0 0.686047,0.371276 0.398349,0.340337 0.398349,0.897251 0,0.587854 -0.376219,1.361347 -0.376219,0.773492 -0.907352,0.773492 -0.398349,0 -0.730307,-0.433156 -0.309828,-0.464095 -0.309828,-1.175708 z"
       style="font-style:oblique;font-weight:bold;font-size:26.167px;line-height:1.25;font-family:Purisa;-inkscape-font-specification:'Purisa Bold Oblique';fill:#ff0000;stroke-width:0.65418"
       id="path71897" />
    <path
       d="m 70.687594,26.306255 q 0.08852,-0.154699 0.08852,-0.278457 0,-0.123759 -0.110653,-0.309397 -0.110652,-0.185638 -0.398349,-0.556915 L 70.001547,24.79021 q -0.575394,-0.742552 -0.86309,-0.92819 -0.287697,-0.185639 -0.840961,-0.185639 -1.106527,0 -1.65979,0.247518 -0.553263,0.216578 -1.23931,0.99007 -2.08027,2.351416 -2.190923,3.00115 0.08852,0.03094 0.376219,0.03094 2.146662,0 6.108028,-1.051949 0.39835,-0.09282 0.663916,-0.278458 0.265566,-0.185638 0.331958,-0.309397 z m 0.995874,5.476325 q 0.863091,-0.835372 1.195049,-0.835372 0.331958,0 0.331958,0.464095 0,0.618794 -0.84096,2.01108 -0.81883,1.361346 -1.748313,2.320477 -2.92123,2.97021 -5.554764,2.97021 -1.836835,0 -3.164667,-1.732623 -1.327832,-1.763562 -1.327832,-4.88847 0,-2.598934 0.774569,-4.579074 0.774569,-1.918261 2.699925,-3.99122 1.925357,-2.103899 3.408103,-2.103899 0.376219,0 1.150788,0.09282 1.172918,0.123759 1.637659,0.340337 0.464742,0.185638 1.018005,0.773492 0.531133,0.587854 0.907352,1.577924 0.39835,0.99007 0.39835,1.887321 0,0.649733 -0.221306,1.175708 -0.221305,0.495035 -0.509002,0.804432 -0.287697,0.309397 -0.81883,0.587854 -0.531133,0.247518 -0.929482,0.371276 -0.37622,0.123759 -0.995875,0.278457 -2.235184,0.587855 -4.536759,0.773493 l -1.947488,0.123758 -0.110652,0.804432 q -0.08852,0.680673 -0.08852,0.928191 0,1.454165 1.040135,2.908331 0.951613,1.361346 2.190923,1.361346 0.973743,0 2.190923,-0.804432 1.217179,-0.835372 2.102401,-1.825442 0.907352,-0.99007 1.748312,-1.794501 z"
       style="font-style:oblique;font-weight:bold;font-size:26.167px;line-height:1.25;font-family:Purisa;-inkscape-font-specification:'Purisa Bold Oblique';fill:#ff0000;stroke-width:0.65418"
       id="path71899" />
    <path
       d="m 79.075034,13.435345 q 0.354089,-2.258598 0.663916,-3.4652456 0.309828,-1.2066479 0.531133,-1.5160448 0.243436,-0.3403365 0.575394,-0.3403365 0.221305,0 0.376219,0.1856381 0.177044,0.1856381 0.177044,0.4640953 0,0.7425525 -0.730307,7.9515005 -0.730308,7.208947 -1.460616,14.046618 -0.708177,6.806731 -0.730307,6.93049 -0.154914,1.082889 -1.018005,1.082889 -0.42048,0 -0.597524,-0.309397 -0.177045,-0.278457 -0.177045,-1.175708 0,-0.92819 0.177045,-2.908331 0.199174,-1.98014 0.663916,-6.621093 0.486871,-4.671893 0.907352,-9.281906 0.243435,-2.382356 0.641785,-5.043169 z"
       style="font-style:oblique;font-weight:bold;font-size:26.167px;line-height:1.25;font-family:Purisa;-inkscape-font-specification:'Purisa Bold Oblique';fill:#ff0000;stroke-width:0.65418"
       id="path71901" />
    <path
       d="m 94.499993,25.904039 q 0,0.928191 -0.37622,1.516045 -0.354087,0.556914 -0.730307,0.556914 -0.06639,0 -0.177039,-0.03094 -0.110657,-0.03094 -0.287696,-0.278457 -0.177048,-0.278458 -0.177048,-0.742553 -0.02216,-0.835371 -0.464743,-1.763562 -0.199173,-0.402216 -0.331954,-0.556914 -0.110657,-0.154699 -0.75244,-0.340337 -0.619659,-0.216578 -1.74831,-0.216578 -0.840964,0 -1.327832,0.371276 -0.464744,0.340337 -1.305708,1.516045 -1.283566,1.763562 -1.947482,3.279607 -0.641787,1.485105 -0.641787,3.310547 0,0.247517 0.02213,0.464095 0.02213,0.216578 0.04426,0.371276 0.02213,0.154699 0.08852,0.340337 0.06639,0.154698 0.08852,0.247517 0.04426,0.09282 0.132781,0.247518 0.08852,0.154698 0.13279,0.216578 0.04423,0.03094 0.154914,0.185638 0.110649,0.154698 0.132782,0.185638 0.531134,0.742552 0.818831,0.95913 0.287696,0.185638 0.885221,0.185638 1.881091,0 4.802327,-3.527124 1.637653,-1.98014 2.323702,-1.98014 0.398353,0 0.398353,0.649733 0,0.959131 -1.482747,2.939271 -1.482746,1.9492 -2.367968,2.691753 -2.235186,1.825441 -3.828582,1.825441 -1.150793,0 -2.34584,-0.835371 -0.973743,-0.649734 -1.416354,-1.639804 -0.42048,-1.02101 -0.42048,-2.691753 0,-1.763562 0.309827,-3.712762 0.376219,-2.382356 2.500749,-4.888471 2.146663,-2.537054 3.607277,-3.00115 0.641791,-0.216578 1.659794,-0.216578 1.74831,0 2.87697,1.392286 1.150784,1.361347 1.150784,2.97021 z"
       style="font-style:oblique;font-weight:bold;font-size:26.167px;line-height:1.25;font-family:Purisa;-inkscape-font-specification:'Purisa Bold Oblique';fill:#ff0000;stroke-width:0.65418"
       id="path71903" />
    <path
       d="m 99.036723,30.947208 q 0,-0.340336 0.199173,-0.649733 0.199172,-0.309397 0.818834,-0.556915 0.61965,-0.247517 1.59339,-0.247517 0.84097,0 1.0844,-0.09282 0.24343,-0.09282 0.50901,-0.464095 0.88522,-1.206648 1.46061,-2.567995 0.57539,-1.392286 0.57539,-2.011079 -0.0885,-0.03094 -0.33196,-0.03094 -1.08439,0 -3.31958,0.804431 -2.213055,0.773493 -2.67779,1.330407 -0.398353,0.556914 -0.995879,0.556914 -0.354087,0 -0.61965,-0.216577 Q 97.0671,26.58471 97.0671,26.213433 q 0,-0.340336 0.265571,-0.711612 0.61965,-0.959131 3.054009,-2.04202 2.43436,-1.082889 3.56302,-1.423225 0.35409,-0.09282 0.81883,-0.09282 1.65979,0 2.14666,0.897251 0.15492,0.278457 0.15492,0.835371 0,1.949201 -1.26144,4.424376 l -0.46475,0.897251 0.39835,0.06187 q 1.17292,0.185638 1.17292,0.711613 0,0.464095 -0.68605,0.866311 -0.66391,0.402216 -1.43848,0.525975 -0.61966,0.09282 -0.99588,0.309397 -0.37622,0.216578 -1.06226,0.928191 -0.5754,0.618793 -1.34996,1.701682 -0.77457,1.05195 -1.10653,1.732623 4.11628,-0.95913 5.2892,-0.95913 1.43849,0 1.43849,0.804431 0,0.402216 -0.22131,0.711613 -0.2213,0.278458 -0.73031,0.495035 -0.50901,0.216578 -0.7967,0.309397 -0.2877,0.06188 -0.97375,0.216578 -4.802316,1.144768 -5.864585,1.144768 -0.929479,0 -0.929479,-0.680673 0,-0.649733 1.150784,-2.753632 1.172918,-2.103899 1.74831,-2.784572 0.11066,-0.123759 0.509,-0.618794 -0.13278,-0.03094 -0.44261,-0.03094 -0.2877,-0.03094 -0.509001,-0.06187 -0.199172,-0.03094 -0.44261,-0.09282 -0.221306,-0.06188 -0.354087,-0.216578 -0.110649,-0.154699 -0.110649,-0.371276 z"
       style="font-style:oblique;font-weight:bold;font-size:26.167px;line-height:1.25;font-family:Purisa;-inkscape-font-specification:'Purisa Bold Oblique';fill:#ff0000;stroke-width:0.65418"
       id="path71905" />
    <path
       d="m 111.58472,36.887628 q -0.90734,0 -1.3057,-0.92819 -0.39835,-0.959131 -0.39835,-1.98014 0,-1.02101 0.46474,-3.960281 0.75244,-4.91941 1.21719,-6.126058 0.44261,-1.051949 0.97373,-1.082889 0.59753,0 0.59753,0.928191 0,0.587854 -0.64178,4.455315 -0.64179,3.867461 -0.64179,5.166928 0,0.866311 0.22131,0.866311 0.30983,0 1.50487,-1.330407 1.19505,-1.330406 1.83683,-2.598933 0.79671,-1.577924 1.50488,-3.867461 0.70818,-2.289537 1.17292,-3.434306 0.48688,-1.144768 1.17292,-1.144768 0.30983,0 0.53113,0.278457 0.22131,0.278457 0.22131,0.742553 0,0.556914 -0.53114,1.98014 -0.509,1.392286 -1.15078,3.743702 -0.64178,2.320476 -0.86309,4.98129 l 0.0222,0.340336 0.44261,-0.247517 q 0.53113,-0.371277 1.018,-0.371277 0.75244,0 0.75244,0.742553 0,1.02101 -1.37209,1.918261 l -0.84096,0.495035 -0.35409,3.093968 q -0.84096,4.733773 -1.12866,5.631024 -0.26556,0.92819 -1.018,0.92819 -0.55326,0 -1.57127,-0.587854 -0.57539,-0.371276 -0.88522,-0.804432 -0.2877,-0.433155 -0.48687,-1.299467 -0.2877,-1.299466 -0.2877,-2.258597 0,-0.742552 0.13278,-1.268527 0.13279,-0.525975 0.26558,-0.773492 0.13278,-0.247518 0.509,-0.742553 0.37622,-0.525974 0.57539,-0.866311 0.33195,-0.556914 0.92948,-0.928191 0.59752,-0.371276 0.64179,-0.402216 0.17704,-0.154698 0.66392,-0.525974 0.0664,-0.278457 0.0664,-1.113829 0,-0.278457 -0.0442,-0.587854 -0.0885,0.09282 -0.61965,0.711613 -0.53113,0.587854 -0.97374,1.021009 -0.42048,0.402216 -1.08439,0.804432 -0.66392,0.402216 -1.23932,0.402216 z m 3.12041,6.435455 q 0.44261,-0.95913 0.44261,-3.96028 v -0.278457 q 0,-0.247517 0.0664,-0.835371 l -0.24344,0.371276 q -0.57539,0.866311 -0.92948,1.701683 -0.35408,0.835371 -0.35408,1.144768 0,0.402216 0.39834,1.051949 0.39835,0.649734 0.61966,0.804432 z"
       style="font-style:oblique;font-weight:bold;font-size:26.167px;line-height:1.25;font-family:Purisa;-inkscape-font-specification:'Purisa Bold Oblique';fill:#ff0000;stroke-width:0.65418"
       id="path71907" />
    <path
       d="m 131.83415,36.361654 q 0,0.340336 -0.24344,0.773492 -0.2213,0.402216 -0.66392,0.402216 -0.55326,-0.06188 -1.19505,-0.742553 -0.61965,-0.711613 -0.75244,-0.711613 -0.24343,0 -0.37622,-0.123758 -0.13278,-0.123759 -0.13278,-0.247518 l -0.0222,-0.123759 q -0.30983,-0.340336 -2.65566,-1.423225 l -0.77457,-0.371277 -0.15492,1.856382 q 0,0.06187 -0.0442,0.464095 -0.0222,0.371276 -0.0442,0.525975 0,0.154698 -0.0442,0.525974 -0.0442,0.340337 -0.11064,0.525975 -0.0442,0.154699 -0.13279,0.433156 -0.0885,0.247517 -0.19918,0.371276 -0.11064,0.154698 -0.28769,0.247518 -0.17705,0.09282 -0.37622,0.09282 -0.509,0 -0.73031,-0.402216 -0.19917,-0.371276 -0.19917,-1.330406 0,-1.206648 0.64178,-6.404516 0.64179,-5.197867 0.66392,-6.559213 0.0442,-3.310547 0.86309,-8.663113 0.2213,-1.608864 1.04013,-1.608864 0.75244,0 0.75244,1.361346 0,0.99007 -0.39835,5.538205 -0.37622,4.517194 -0.39835,5.785721 l -0.0221,0.99007 2.83271,-2.93927 q 0.24343,-0.247518 0.70817,-0.742553 0.48687,-0.495035 0.70818,-0.711612 0.2213,-0.247518 0.59752,-0.618794 0.37622,-0.371276 0.55327,-0.525975 0.19917,-0.185638 0.44261,-0.371276 0.24343,-0.216578 0.39834,-0.278457 0.17705,-0.09282 0.2877,-0.09282 0.2877,0.06187 0.46474,0.371276 0.17705,0.309397 0.17705,0.680673 0,0.433156 -0.15491,0.680673 -0.15492,0.216578 -0.61966,0.680673 -0.44261,0.464096 -0.86309,1.08289 -1.17292,1.794501 -4.69167,4.702832 -0.95161,0.773492 -1.06227,1.206648 0,0.216578 0.22131,0.371276 l 2.43436,1.485105 q 3.56301,2.475175 3.56301,3.836522 z"
       style="font-style:oblique;font-weight:bold;font-size:26.167px;line-height:1.25;font-family:Purisa;-inkscape-font-specification:'Purisa Bold Oblique';fill:#ff0000;stroke-width:0.65418"
       id="path71909" />
    <path
       d="m 152.70321,31.844459 q 0,0.835372 -0.53114,1.516045 -0.509,0.649733 -0.509,0.897251 0,0.185638 0.0664,0.464095 0.0664,0.309397 0.11066,0.433156 0.0442,0.123758 0.2877,0.216578 0.24344,0.06187 0.55326,0.09282 0.33196,0 1.10652,0 1.19505,0 1.79258,-0.154698 0.61966,-0.185638 1.23931,-0.680673 0.97374,-0.804432 1.23931,-1.237588 0.26557,-0.433155 0.44261,-1.577924 0.0664,-0.371276 0.0664,-0.618794 0,-0.371276 -0.24344,-0.618793 -0.22131,-0.247518 -1.018,-0.773493 -1.28358,-0.866311 -1.85897,-0.95913 -1.10653,0 -2.83271,-2.258597 -1.70405,-2.258597 -1.70405,-3.712763 0,-1.392286 1.65979,-3.836521 1.68192,-2.475175 3.6958,-3.619943 0.97375,-0.556915 3.3417,-0.556915 1.04014,0 1.52702,0.216578 0.48687,0.216578 0.97374,0.866311 0.73031,0.99007 0.73031,2.01108 0,0.185638 -0.0442,0.464095 -0.0442,0.247518 -0.19917,0.556915 -0.15492,0.309397 -0.39836,0.309397 -0.24343,0 -0.509,-0.309397 -0.26556,-0.309397 -0.509,-0.649734 -0.24344,-0.371276 -0.77457,-0.680673 -0.53113,-0.309397 -1.23931,-0.309397 -2.14666,0 -4.02776,2.072959 -1.88109,2.072959 -1.88109,3.589004 0,0.680673 1.15079,1.608864 1.17291,0.928191 3.07614,1.763562 3.20893,1.423226 3.20893,4.331556 0,1.268528 -0.53113,2.660814 -0.95162,2.567994 -2.43436,3.558064 -1.48275,0.95913 -4.91298,1.268527 l -2.41223,0.216578 -0.37622,-1.98014 q -0.17704,-0.897251 -0.17704,-1.639804 0,-1.608864 0.59752,-2.722692 0.61965,-1.113829 1.57127,-1.113829 0.68604,0 0.68604,0.897251 z"
       style="font-style:oblique;font-weight:bold;font-size:26.167px;line-height:1.25;font-family:Purisa;-inkscape-font-specification:'Purisa Bold Oblique';fill:#ff0000;stroke-width:0.65418"
       id="path71911" />
    <path
       d="m 173.52801,26.306255 q 0.0885,-0.154699 0.0885,-0.278457 0,-0.123759 -0.11066,-0.309397 -0.11065,-0.185638 -0.39835,-0.556915 l -0.26557,-0.371276 q -0.57539,-0.742552 -0.86309,-0.92819 -0.28769,-0.185639 -0.84096,-0.185639 -1.10653,0 -1.65978,0.247518 -0.55327,0.216578 -1.23932,0.99007 -2.08027,2.351416 -2.19092,3.00115 0.0885,0.03094 0.37622,0.03094 2.14666,0 6.10802,-1.051949 0.39836,-0.09282 0.66392,-0.278458 0.26557,-0.185638 0.33196,-0.309397 z m 0.99587,5.476325 q 0.8631,-0.835372 1.19505,-0.835372 0.33197,0 0.33197,0.464095 0,0.618794 -0.84097,2.01108 -0.81883,1.361346 -1.74831,2.320477 -2.92123,2.97021 -5.55477,2.97021 -1.83683,0 -3.16466,-1.732623 -1.32783,-1.763562 -1.32783,-4.88847 0,-2.598934 0.77456,-4.579074 0.77457,-1.918261 2.69993,-3.99122 1.92536,-2.103899 3.40811,-2.103899 0.37621,0 1.15078,0.09282 1.17292,0.123759 1.63766,0.340337 0.46474,0.185638 1.018,0.773492 0.53114,0.587854 0.90736,1.577924 0.39834,0.99007 0.39834,1.887321 0,0.649733 -0.2213,1.175708 -0.22131,0.495035 -0.509,0.804432 -0.2877,0.309397 -0.81883,0.587854 -0.53114,0.247518 -0.92948,0.371276 -0.37622,0.123759 -0.99588,0.278457 -2.23518,0.587855 -4.53676,0.773493 l -1.94749,0.123758 -0.11065,0.804432 q -0.0885,0.680673 -0.0885,0.928191 0,1.454165 1.04014,2.908331 0.95161,1.361346 2.19092,1.361346 0.97374,0 2.19092,-0.804432 1.21718,-0.835372 2.1024,-1.825442 0.90736,-0.99007 1.74831,-1.794501 z"
       style="font-style:oblique;font-weight:bold;font-size:26.167px;line-height:1.25;font-family:Purisa;-inkscape-font-specification:'Purisa Bold Oblique';fill:#ff0000;stroke-width:0.65418"
       id="path71913" />
    <path
       d="m 180.25566,35.309704 q 0,0.371276 0.39836,0.618794 0.42047,0.247517 0.75244,0.247517 0.48686,0 1.26144,-0.340336 0.7967,-0.340337 1.34995,-0.649734 l 0.53114,-0.340336 q 0.0664,-0.402216 0.95161,-1.299467 0.90736,-0.897251 0.90736,-1.082889 0,-0.154699 -0.13279,-0.371276 -0.11065,-0.216578 -0.64178,-0.464096 -0.50901,-0.247517 -1.3721,-0.247517 -1.88109,0 -2.94336,1.330406 -1.06227,1.330407 -1.06227,2.598934 z m 9.38335,-10.148218 q 0,0.835372 -0.61965,5.197868 -0.61966,4.362496 -0.77457,6.466395 -0.15492,0.711613 -0.57539,1.237587 -0.42048,0.495035 -0.64179,0.495035 -0.68605,0 -0.68605,-1.887321 0,-0.216577 0.0664,-1.516044 -0.88523,1.144768 -2.43436,2.227657 -1.54914,1.05195 -2.50075,1.05195 -0.61966,0 -1.46062,-0.278458 -0.81883,-0.278457 -1.15079,-0.680673 -0.33195,-0.433155 -0.33195,-1.608863 0,-2.227658 0.81883,-3.465246 0.81883,-1.237587 2.50075,-2.289536 1.77044,-1.144769 3.20892,-1.144769 0.61966,0 0.99588,0.216578 0.37622,0.216578 0.55326,0.525975 0.19918,0.278457 0.2213,0.278457 0.33197,0.09282 0.55327,0.402216 0.42048,-2.722693 0.42048,-4.393436 0,-2.196718 -0.86309,-2.196718 -1.06227,0 -2.3901,0.587854 -1.3057,0.587854 -2.39009,1.206648 -1.06227,0.587854 -1.50488,0.587854 -0.46475,0 -0.46475,-0.556914 0,-0.03094 0,-0.06188 0.0222,-0.06188 0.0222,-0.09282 0.0885,-0.525974 0.2877,-0.897251 0.19917,-0.402216 0.66391,-0.711613 0.48688,-0.340336 0.81883,-0.525974 0.35409,-0.185638 1.26145,-0.587854 0.90735,-0.402216 1.43848,-0.680673 1.32783,-0.649734 2.43435,-0.649734 1.79258,0 2.32372,2.351416 0.19917,0.773493 0.19917,1.392286 z"
       style="font-style:oblique;font-weight:bold;font-size:26.167px;line-height:1.25;font-family:Purisa;-inkscape-font-specification:'Purisa Bold Oblique';fill:#ff0000;stroke-width:0.65418"
       id="path71915" />
    <path
       d="m 195.72491,22.500673 q 0,0.03094 -0.0442,0.371277 -0.0222,0.309396 -0.0885,0.866311 -0.0442,0.556914 -0.11066,1.268527 -0.0442,0.711613 -0.0885,1.701683 -0.0222,0.99007 -0.0222,2.01108 v 0.618793 q 0.28769,-0.402216 0.68605,-1.051949 1.10652,-1.918261 2.85483,-3.434305 1.74831,-1.546985 2.83272,-1.546985 0.55326,0 0.79669,0.371276 0.24343,0.371277 0.24343,0.742553 0,0.680673 -1.17291,1.237587 -1.46062,0.711613 -3.4745,3.496185 -1.99175,2.784572 -2.69992,5.228807 -0.88522,3.093969 -1.34997,4.145919 -0.44261,1.051949 -0.99587,1.051949 -0.77457,0 -0.77457,-1.330406 0,-0.309397 0.15492,-2.382356 0.17704,-2.103899 0.53113,-5.445386 0.35409,-3.341486 0.73031,-5.87854 0.15491,-1.02101 0.33196,-1.577924 0.19917,-0.587854 0.59752,-1.02101 0.26557,-0.278457 0.53113,-0.278457 0.53114,0 0.53114,0.835371 z"
       style="font-style:oblique;font-weight:bold;font-size:26.167px;line-height:1.25;font-family:Purisa;-inkscape-font-specification:'Purisa Bold Oblique';fill:#ff0000;stroke-width:0.65418"
       id="path71917" />
    <path
       d="m 216.3948,25.904039 q 0,0.928191 -0.37622,1.516045 -0.35408,0.556914 -0.7303,0.556914 -0.0664,0 -0.17705,-0.03094 -0.11065,-0.03094 -0.2877,-0.278457 -0.17704,-0.278458 -0.17704,-0.742553 -0.0222,-0.835371 -0.46474,-1.763562 -0.19917,-0.402216 -0.33196,-0.556914 -0.11065,-0.154699 -0.75244,-0.340337 -0.61965,-0.216578 -1.74831,-0.216578 -0.84096,0 -1.32784,0.371276 -0.46473,0.340337 -1.30569,1.516045 -1.28357,1.763562 -1.94749,3.279607 -0.64179,1.485105 -0.64179,3.310547 0,0.247517 0.0222,0.464095 0.0222,0.216578 0.0442,0.371276 0.0222,0.154699 0.0885,0.340337 0.0664,0.154698 0.0885,0.247517 0.0442,0.09282 0.13278,0.247518 0.0885,0.154698 0.13278,0.216578 0.0442,0.03094 0.15492,0.185638 0.11065,0.154698 0.13278,0.185638 0.53113,0.742552 0.81883,0.95913 0.2877,0.185638 0.88522,0.185638 1.8811,0 4.80233,-3.527124 1.63766,-1.98014 2.32371,-1.98014 0.39834,0 0.39834,0.649733 0,0.959131 -1.48274,2.939271 -1.48274,1.9492 -2.36796,2.691753 -2.23519,1.825441 -3.82859,1.825441 -1.15079,0 -2.34584,-0.835371 -0.97374,-0.649734 -1.41635,-1.639804 -0.42048,-1.02101 -0.42048,-2.691753 0,-1.763562 0.30983,-3.712762 0.37622,-2.382356 2.50075,-4.888471 2.14666,-2.537054 3.60727,-3.00115 0.64179,-0.216578 1.6598,-0.216578 1.74831,0 2.87697,1.392286 1.15078,1.361347 1.15078,2.97021 z"
       style="font-style:oblique;font-weight:bold;font-size:26.167px;line-height:1.25;font-family:Purisa;-inkscape-font-specification:'Purisa Bold Oblique';fill:#ff0000;stroke-width:0.65418"
       id="path71919" />
    <path
       d="m 219.00617,39.115286 q -0.11065,0 -0.24343,-0.09282 -0.13279,-0.06188 -0.30983,-0.433156 -0.17705,-0.340336 -0.17705,-0.92819 0,-0.711613 0.2213,-2.196718 0.39836,-2.598934 0.88523,-7.98244 0.509,-5.414445 0.92948,-9.312846 0.44261,-3.898401 0.81883,-4.517194 0.48687,-0.866312 0.90735,-0.866312 0.30983,0 0.44261,0.309397 0.13278,0.278457 0.13278,1.05195 0,0.464095 -0.0442,1.144768 -0.0442,0.649734 -0.15491,1.732623 -0.11065,1.082889 -0.22131,2.134838 -0.11065,1.05195 -0.30983,2.97021 -0.19917,1.887321 -0.35409,3.496185 l -0.2213,2.134838 q 0.88522,-1.546984 3.09827,-3.743702 2.23519,-2.227657 2.98763,-2.227657 0.81883,0 1.39422,1.021009 0.59753,1.02101 0.59753,1.949201 0,1.237587 -0.90736,7.178007 l -0.0885,0.649734 q -0.95161,6.033239 -1.79258,6.033239 -0.44261,0 -0.44261,-1.02101 0,-0.711613 0.59753,-5.507264 0.59752,-4.795652 0.59752,-6.775792 0,-0.495035 -0.0222,-0.680673 l -0.11066,-0.95913 -1.23931,1.237587 q -1.34996,1.330407 -2.54501,3.03209 -1.19505,1.701682 -1.65979,2.97021 -0.2877,0.773492 -0.7967,3.001149 -0.48688,2.227658 -0.97374,3.712763 -0.48688,1.485105 -0.99588,1.485105 z"
       style="font-style:oblique;font-weight:bold;font-size:26.167px;line-height:1.25;font-family:Purisa;-inkscape-font-specification:'Purisa Bold Oblique';fill:#ff0000;stroke-width:0.65418"
       id="path71921" />
  </g>
</svg>
